<svg width="19" height="19" viewBox="0 0 19 19" fill="none" xmlns="http://www.w3.org/2000/svg">
<g clip-path="url(#clip0_362_16998)">
<path d="M17.9811 3.22763C17.7584 2.96039 17.4797 2.74546 17.1646 2.5981C16.8495 2.45075 16.5058 2.37458 16.1579 2.375H3.35825L3.325 2.09712C3.25696 1.51954 2.97935 0.986996 2.5448 0.600462C2.11026 0.213927 1.549 0.000270586 0.967417 0L0.791667 0C0.581704 0 0.38034 0.0834075 0.231874 0.231874C0.0834075 0.38034 0 0.581704 0 0.791667C0 1.00163 0.0834075 1.20299 0.231874 1.35146C0.38034 1.49993 0.581704 1.58333 0.791667 1.58333H0.967417C1.16132 1.58336 1.34848 1.65455 1.49338 1.7834C1.63828 1.91225 1.73085 2.0898 1.75354 2.28237L2.84288 11.5449C2.95597 12.5082 3.41879 13.3964 4.14351 14.041C4.86823 14.6856 5.80439 15.0417 6.77429 15.0417H15.0417C15.2516 15.0417 15.453 14.9583 15.6015 14.8098C15.7499 14.6613 15.8333 14.46 15.8333 14.25C15.8333 14.04 15.7499 13.8387 15.6015 13.6902C15.453 13.5417 15.2516 13.4583 15.0417 13.4583H6.77429C6.28429 13.457 5.80672 13.3041 5.40703 13.0206C5.00735 12.7371 4.70512 12.337 4.54179 11.875H13.9785C14.9065 11.8751 15.8051 11.549 16.5172 10.9538C17.2293 10.3587 17.7096 9.53222 17.8742 8.61888L18.4957 5.17196C18.5577 4.82996 18.5438 4.47851 18.4549 4.1425C18.3659 3.8065 18.2042 3.49416 17.9811 3.22763V3.22763ZM16.9417 4.89092L16.3194 8.33783C16.2206 8.88646 15.9319 9.38283 15.5039 9.74003C15.0759 10.0972 14.5359 10.2925 13.9785 10.2917H4.29004L3.54508 3.95833H16.1579C16.2742 3.95764 16.3892 3.98257 16.4948 4.03137C16.6004 4.08016 16.6939 4.15162 16.7687 4.24065C16.8435 4.32968 16.8978 4.4341 16.9277 4.54649C16.9576 4.65888 16.9624 4.77648 16.9417 4.89092V4.89092Z" fill="white"/>
<path d="M5.54231 19.0006C6.41676 19.0006 7.12565 18.2918 7.12565 17.4173C7.12565 16.5429 6.41676 15.834 5.54231 15.834C4.66787 15.834 3.95898 16.5429 3.95898 17.4173C3.95898 18.2918 4.66787 19.0006 5.54231 19.0006Z" fill="white"/>
<path d="M13.4583 19.0006C14.3328 19.0006 15.0417 18.2918 15.0417 17.4173C15.0417 16.5429 14.3328 15.834 13.4583 15.834C12.5839 15.834 11.875 16.5429 11.875 17.4173C11.875 18.2918 12.5839 19.0006 13.4583 19.0006Z" fill="white"/>
</g>
<defs>
<clipPath id="clip0_362_16998">
<rect width="19" height="19" fill="white"/>
</clipPath>
</defs>
</svg>
