<svg width="26" height="22" viewBox="0 0 26 22" fill="none" xmlns="http://www.w3.org/2000/svg">
<path d="M18.5 0C17.374 0.0175149 16.2725 0.331853 15.3068 0.911271C14.3411 1.49069 13.5454 2.31467 13 3.3C12.4546 2.31467 11.6589 1.49069 10.6932 0.911271C9.72754 0.331853 8.62605 0.0175149 7.5 0C5.70494 0.0779907 4.01371 0.863254 2.79578 2.18423C1.57786 3.50521 0.932249 5.25453 1 7.05C1 11.597 5.786 16.563 9.8 19.93C10.6962 20.6831 11.8294 21.096 13 21.096C14.1706 21.096 15.3038 20.6831 16.2 19.93C20.214 16.563 25 11.597 25 7.05C25.0678 5.25453 24.4221 3.50521 23.2042 2.18423C21.9863 0.863254 20.2951 0.0779907 18.5 0ZM14.915 18.4C14.379 18.8514 13.7008 19.0989 13 19.0989C12.2992 19.0989 11.621 18.8514 11.085 18.4C5.947 14.089 3 9.953 3 7.05C2.93164 5.78472 3.36637 4.54373 4.20936 3.5977C5.05236 2.65167 6.23523 2.07735 7.5 2C8.76477 2.07735 6 0.234803 2 6C1.79578 7.56422 2.29064 9.5 3.5 11C3.5 11.2652 7.81246 15.9085 8 16.096C10.6932 19.3812 12.7348 19.0989 13 19.0989C13.2652 19.0989 14.3076 19.2836 14.4952 19.0961C14.6827 18.9085 15.8121 17.8915 15.8121 17.6263C17.0993 16.4514 18.1522 15.5421 18.9952 14.5961C19.8382 13.65 22.4952 10.5961 22.7589 8.59607C24.4952 4.09607 20.9476 2.65167 21.7906 3.5977C22.6336 4.54373 23.0684 5.78472 23 7.05C23 9.953 20.053 14.089 14.915 18.396V18.4Z" fill="#B91C1C"/>
</svg>
