<svg width="26" height="23" viewBox="0 0 26 23" fill="none" xmlns="http://www.w3.org/2000/svg">
<path d="M18.5 0.916504C17.3739 0.934019 16.2724 1.24836 15.3067 1.82778C14.341 2.40719 13.5453 3.23117 13 4.2165C12.4546 3.23117 11.6589 2.40719 10.6932 1.82778C9.7275 1.24836 8.62601 0.934019 7.49996 0.916504C5.7049 0.994495 4.01366 1.77976 2.79574 3.10074C1.57782 4.42171 0.932208 6.17103 0.999958 7.9665C0.999958 12.5135 5.78596 17.4795 9.79996 20.8465C10.6962 21.5996 11.8293 22.0125 13 22.0125C14.1706 22.0125 15.3037 21.5996 16.2 20.8465C20.214 17.4795 25 12.5135 25 7.9665C25.0677 6.17103 24.4221 4.42171 23.2042 3.10074C21.9863 1.77976 20.295 0.994495 18.5 0.916504ZM14.915 19.3165C14.3789 19.7679 13.7007 20.0154 13 20.0154C12.2992 20.0154 11.621 19.7679 11.085 19.3165C5.94696 15.0055 2.99996 10.8695 2.99996 7.9665C2.9316 6.70122 3.36632 5.46023 4.20932 4.5142C5.05232 3.56817 6.23519 2.99385 7.49996 2.9165C8.76472 2.99385 9.9476 3.56817 10.7906 4.5142C11.6336 5.46023 12.0683 6.70122 12 7.9665C12 8.23172 12.1053 8.48607 12.2929 8.67361C12.4804 8.86115 12.7347 8.9665 13 8.9665C13.2652 8.9665 13.5195 8.86115 13.7071 8.67361C13.8946 8.48607 14 8.23172 14 7.9665C13.9316 6.70122 14.3663 5.46023 15.2093 4.5142C16.0523 3.56817 17.2352 2.99385 18.5 2.9165C19.7647 2.99385 20.9476 3.56817 21.7906 4.5142C22.6336 5.46023 23.0683 6.70122 23 7.9665C23 10.8695 20.053 15.0055 14.915 19.3125V19.3165Z" fill="#B91C1C"/>
</svg>
