<svg width="20" height="21" viewBox="0 0 20 21" fill="none" xmlns="http://www.w3.org/2000/svg">
<g clip-path="url(#clip0_330_14260)">
<path d="M11.6667 20.6602C11.4864 20.6602 11.311 20.6017 11.1667 20.4935L7.8334 17.9935C7.7299 17.9159 7.6459 17.8152 7.58804 17.6995C7.53019 17.5838 7.50006 17.4562 7.50006 17.3268V12.6435L1.6534 6.06599C1.23817 5.59755 0.967048 5.01917 0.872632 4.40035C0.778216 3.78153 0.864519 3.14862 1.12117 2.57767C1.37782 2.00672 1.79389 1.52204 2.31938 1.18188C2.84487 0.841717 3.45742 0.660552 4.0834 0.660156H15.9167C16.5427 0.66089 17.1551 0.842356 17.6803 1.18275C18.2056 1.52313 18.6214 2.00797 18.8778 2.57898C19.1342 3.14999 19.2202 3.78289 19.1255 4.40161C19.0309 5.02034 18.7596 5.59857 18.3442 6.06682L12.5001 12.6435V19.8268C12.5001 20.0478 12.4123 20.2598 12.256 20.4161C12.0997 20.5724 11.8877 20.6602 11.6667 20.6602ZM9.16673 16.9102L10.8334 18.1602V12.3268C10.8336 12.1228 10.9086 11.9259 11.0442 11.7735L17.1009 4.95932C17.3029 4.73106 17.4346 4.44936 17.4804 4.14803C17.5262 3.84671 17.4841 3.53858 17.359 3.26062C17.234 2.98267 17.0314 2.7467 16.7756 2.58106C16.5197 2.41542 16.2215 2.32714 15.9167 2.32682H4.0834C3.77877 2.32728 3.48075 2.41561 3.22507 2.58121C2.96939 2.74681 2.7669 2.98265 2.6419 3.26045C2.5169 3.53825 2.47469 3.8462 2.52034 4.14739C2.56598 4.44858 2.69754 4.7302 2.89923 4.95849L8.95673 11.7735C9.09208 11.926 9.16679 12.1229 9.16673 12.3268V16.9102Z" fill="#0A0A0A"/>
</g>
<defs>
<clipPath id="clip0_330_14260">
<rect width="20" height="20" fill="white" transform="translate(0 0.660156)"/>
</clipPath>
</defs>
</svg>
