<svg width="24" height="17" viewBox="0 0 24 17" fill="none" xmlns="http://www.w3.org/2000/svg">
<path d="M1 2H23C23.2652 2 23.5196 1.89464 23.7071 1.7071C23.8946 1.51957 24 1.26521 24 0.999998C24 0.734782 23.8946 0.480429 23.7071 0.292893C23.5196 0.105357 23.2652 0 23 0H1C0.734784 0 0.48043 0.105357 0.292893 0.292893C0.105357 0.480429 0 0.734782 0 0.999998C0 1.26521 0.105357 1.51957 0.292893 1.7071C0.48043 1.89464 0.734784 2 1 2V2Z" fill="currentColor"/>
<path d="M23 5H1C0.734784 5 0.48043 5.10536 0.292893 5.29289C0.105357 5.48043 0 5.73478 0 6C0 6.26521 0.105357 6.51957 0.292893 6.7071C0.48043 6.89464 0.734784 7 1 7H23C23.2652 7 23.5196 6.89464 23.7071 6.7071C23.8946 6.51957 24 6.26521 24 6C24 5.73478 23.8946 5.48043 23.7071 5.29289C23.5196 5.10536 23.2652 5 23 5Z" fill="currentColor"/>
<path d="M23 15H1C0.734784 15 0.48043 15.1054 0.292893 15.2929C0.105357 15.4804 0 15.7348 0 16C0 16.2652 0.105357 16.5196 0.292893 16.7071C0.48043 16.8947 0.734784 17 1 17H23C23.2652 17 23.5196 16.8947 23.7071 16.7071C23.8946 16.5196 24 16.2652 24 16C24 15.7348 23.8946 15.4804 23.7071 15.2929C23.5196 15.1054 23.2652 15 23 15Z" fill="currentColor"/>
<path d="M23 10H1C0.734784 10 0.48043 10.1054 0.292893 10.2929C0.105357 10.4804 0 10.7348 0 11C0 11.2652 0.105357 11.5196 0.292893 11.7071C0.48043 11.8947 0.734784 12 1 12H23C23.2652 12 23.5196 11.8947 23.7071 11.7071C23.8946 11.5196 24 11.2652 24 11C24 10.7348 23.8946 10.4804 23.7071 10.2929C23.5196 10.1054 23.2652 10 23 10Z" fill="currentColor"/>
</svg>
