<svg width="30" height="31" viewBox="0 0 30 31" fill="none" xmlns="http://www.w3.org/2000/svg">
<g clip-path="url(#clip0_161_16271)">
<path d="M1.875 8.45068H28.125C28.6223 8.45068 29.0992 8.25314 29.4508 7.90151C29.8025 7.54988 30 7.07296 30 6.57568C30 6.0784 29.8025 5.60149 29.4508 5.24986C29.0992 4.89823 28.6223 4.70068 28.125 4.70068H1.875C1.37772 4.70068 0.900805 4.89823 0.549175 5.24986C0.197544 5.60149 0 6.0784 0 6.57568C0 7.07296 0.197544 7.54988 0.549175 7.90151C0.900805 8.25314 1.37772 8.45068 1.875 8.45068V8.45068Z" fill="white"/>
<path d="M28.125 10.9507H11.875C11.3777 10.9507 10.9008 11.1482 10.5492 11.4999C10.1975 11.8515 10 12.3284 10 12.8257C10 13.323 10.1975 13.7999 10.5492 14.1515C10.9008 14.5031 11.3777 14.7007 11.875 14.7007H28.125C28.6223 14.7007 29.0992 14.5031 29.4508 14.1515C29.8025 13.7999 30 13.323 30 12.8257C30 12.3284 29.8025 11.8515 29.4508 11.4999C29.0992 11.1482 28.6223 10.9507 28.125 10.9507V10.9507Z" fill="white"/>
<path d="M28.125 23.4507H11.875C11.3777 23.4507 10.9008 23.6482 10.5492 23.9999C10.1975 24.3515 10 24.8284 10 25.3257C10 25.823 10.1975 26.2999 10.5492 26.6515C10.9008 27.0031 11.3777 27.2007 11.875 27.2007H28.125C28.6223 27.2007 29.0992 27.0031 29.4508 26.6515C29.8025 26.2999 30 25.823 30 25.3257C30 24.8284 29.8025 24.3515 29.4508 23.9999C29.0992 23.6482 28.6223 23.4507 28.125 23.4507Z" fill="white"/>
<path d="M28.125 17.2007H1.875C1.37772 17.2007 0.900805 17.3982 0.549175 17.7499C0.197544 18.1015 0 18.5784 0 19.0757C0 19.573 0.197544 20.0499 0.549175 20.4015C0.900805 20.7531 1.37772 20.9507 1.875 20.9507H28.125C28.6223 20.9507 29.0992 20.7531 29.4508 20.4015C29.8025 20.0499 30 19.573 30 19.0757C30 18.5784 29.8025 18.1015 29.4508 17.7499C29.0992 17.3982 28.6223 17.2007 28.125 17.2007Z" fill="white"/>
</g>
<defs>
<clipPath id="clip0_161_16271">
<rect width="30" height="30" fill="white" transform="translate(0 0.950684)"/>
</clipPath>
</defs>
</svg>
