<svg width="133" height="36" viewBox="0 0 133 36" fill="none" xmlns="http://www.w3.org/2000/svg">
<g clip-path="url(#clip0_530_18762)">
<mask id="mask0_530_18762" style="mask-type:luminance" maskUnits="userSpaceOnUse" x="0" y="0" width="133" height="36">
<path d="M133 0H0V36H133V0Z" fill="white"/>
</mask>
<g mask="url(#mask0_530_18762)">
<path d="M2.59766 4.98828L25.3569 17.9999L2.59766 31.0114V4.98828Z" stroke="#B91C1C" stroke-width="5"/>
<path d="M39.4044 24.0001V22.0481H42.0604C42.5511 22.0481 42.9351 21.9041 43.2124 21.6161C43.4898 21.3281 43.6284 20.9761 43.6284 20.5601C43.6284 20.2721 43.5644 20.0161 43.4364 19.7921C43.3084 19.5681 43.1271 19.3921 42.8924 19.2641C42.6684 19.1361 42.3911 19.0721 42.0604 19.0721H39.4044V17.1681H41.8524C42.2684 17.1681 42.6044 17.0668 42.8604 16.8641C43.1164 16.6508 43.2444 16.3308 43.2444 15.9041C43.2444 15.4881 43.1164 15.1788 42.8604 14.9761C42.6044 14.7628 42.2684 14.6561 41.8524 14.6561H39.4044V12.7041H42.3324C43.0578 12.7041 43.6711 12.8374 44.1724 13.1041C44.6844 13.3708 45.0738 13.7281 45.3404 14.1761C45.6071 14.6241 45.7404 15.1201 45.7404 15.6641C45.7404 16.3574 45.5164 16.9441 45.0684 17.4241C44.6204 17.9041 43.9591 18.2348 43.0844 18.4161L43.1484 17.5681C44.0978 17.7494 44.8284 18.1174 45.3404 18.6721C45.8631 19.2268 46.1244 19.9094 46.1244 20.7201C46.1244 21.3388 45.9698 21.8988 45.6604 22.4001C45.3618 22.8908 44.9244 23.2801 44.3484 23.5681C43.7831 23.8561 43.1004 24.0001 42.3004 24.0001H39.4044ZM37.4844 24.0001V12.7041H39.9644V24.0001H37.4844ZM51.3504 24.1761C50.5078 24.1761 49.7558 24.0054 49.0944 23.6641C48.4438 23.3121 47.9318 22.8268 47.5584 22.2081C47.1851 21.5894 46.9984 20.8908 46.9984 20.1121C46.9984 19.3334 47.1798 18.6401 47.5424 18.0321C47.9158 17.4134 48.4171 16.9281 49.0464 16.5761C49.6758 16.2241 50.3851 16.0481 51.1744 16.0481C51.9424 16.0481 52.6198 16.2134 53.2064 16.5441C53.7931 16.8748 54.2518 17.3334 54.5824 17.9201C54.9238 18.5068 55.0944 19.1788 55.0944 19.9361C55.0944 20.0748 55.0838 20.2241 55.0624 20.3841C55.0518 20.5334 55.0251 20.7094 54.9824 20.9121L48.2784 20.9281V19.2481L53.9424 19.2321L52.8864 19.9361C52.8758 19.4881 52.8064 19.1201 52.6784 18.8321C52.5504 18.5334 52.3584 18.3094 52.1024 18.1601C51.8571 18.0001 51.5531 17.9201 51.1904 17.9201C50.8064 17.9201 50.4704 18.0108 50.1824 18.1921C49.9051 18.3628 49.6864 18.6081 49.5264 18.9281C49.3771 19.2481 49.3024 19.6374 49.3024 20.0961C49.3024 20.5548 49.3824 20.9494 49.5424 21.2801C49.7131 21.6001 49.9478 21.8508 50.2464 22.0321C50.5558 22.2028 50.9184 22.2881 51.3344 22.2881C51.7184 22.2881 52.0651 22.2241 52.3744 22.0961C52.6838 21.9574 52.9558 21.7548 53.1904 21.4881L54.5344 22.8321C54.1504 23.2801 53.6864 23.6161 53.1424 23.8401C52.5984 24.0641 52.0011 24.1761 51.3504 24.1761ZM59.5241 24.1601C58.8094 24.1601 58.1694 23.9841 57.6041 23.6321C57.0494 23.2801 56.6067 22.8001 56.2761 22.1921C55.9561 21.5841 55.7961 20.8908 55.7961 20.1121C55.7961 19.3334 55.9561 18.6401 56.2761 18.0321C56.6067 17.4241 57.0494 16.9441 57.6041 16.5921C58.1694 16.2401 58.8094 16.0641 59.5241 16.0641C60.0467 16.0641 60.5161 16.1654 60.9321 16.3681C61.3587 16.5708 61.7054 16.8534 61.9721 17.2161C62.2387 17.5681 62.3881 17.9734 62.4201 18.4321V21.7921C62.3881 22.2508 62.2387 22.6614 61.9721 23.0241C61.7161 23.3761 61.3747 23.6534 60.9481 23.8561C60.5214 24.0588 60.0467 24.1601 59.5241 24.1601ZM60.0201 21.9521C60.5427 21.9521 60.9641 21.7814 61.2841 21.4401C61.6041 21.0881 61.7641 20.6454 61.7641 20.1121C61.7641 19.7494 61.6894 19.4294 61.5401 19.1521C61.4014 18.8748 61.1987 18.6614 60.9321 18.5121C60.6761 18.3521 60.3774 18.2721 60.0361 18.2721C59.6947 18.2721 59.3907 18.3521 59.1241 18.5121C58.8681 18.6614 58.6601 18.8748 58.5001 19.1521C58.3507 19.4294 58.2761 19.7494 58.2761 20.1121C58.2761 20.4641 58.3507 20.7788 58.5001 21.0561C58.6494 21.3334 58.8574 21.5521 59.1241 21.7121C59.3907 21.8721 59.6894 21.9521 60.0201 21.9521ZM61.6681 24.0001V21.9041L62.0361 20.0161L61.6681 18.1281V16.2241H64.0681V24.0001H61.6681ZM66.8957 24.0001V13.0081H69.3437V24.0001H66.8957ZM65.1357 18.3041V16.2241H71.1037V18.3041H65.1357Z" fill="white"/>
<path d="M77.7641 24.1763C76.9214 24.1763 76.1374 24.0323 75.4121 23.7443C74.6974 23.4456 74.0681 23.0296 73.5241 22.4963C72.9908 21.963 72.5748 21.3443 72.2761 20.6403C71.9774 19.9256 71.8281 19.1576 71.8281 18.3363C71.8281 17.515 71.9774 16.7523 72.2761 16.0483C72.5748 15.3336 72.9908 14.715 73.5241 14.1923C74.0574 13.6696 74.6814 13.2643 75.3961 12.9763C76.1214 12.6776 76.9054 12.5283 77.7481 12.5283C78.6441 12.5283 79.4388 12.6723 80.1321 12.9603C80.8361 13.2483 81.4494 13.643 81.9721 14.1443L80.2921 15.8403C79.9934 15.5203 79.6308 15.2696 79.2041 15.0883C78.7881 14.907 78.3028 14.8163 77.7481 14.8163C77.2574 14.8163 76.8041 14.9016 76.3881 15.0723C75.9828 15.2323 75.6308 15.467 75.3321 15.7763C75.0441 16.0856 74.8148 16.459 74.6441 16.8963C74.4841 17.3336 74.4041 17.8136 74.4041 18.3363C74.4041 18.8696 74.4841 19.355 74.6441 19.7923C74.8148 20.2296 75.0441 20.603 75.3321 20.9123C75.6308 21.2216 75.9828 21.4616 76.3881 21.6323C76.8041 21.803 77.2574 21.8883 77.7481 21.8883C78.3241 21.8883 78.8254 21.7976 79.2521 21.6163C79.6788 21.435 80.0468 21.1843 80.3561 20.8643L82.0521 22.5603C81.5081 23.0616 80.8841 23.4563 80.1801 23.7443C79.4868 24.0323 78.6814 24.1763 77.7641 24.1763ZM86.7679 24.1763C85.9679 24.1763 85.2425 24.0003 84.5919 23.6483C83.9519 23.2856 83.4452 22.795 83.0719 22.1763C82.6985 21.5576 82.5119 20.8643 82.5119 20.0963C82.5119 19.3283 82.6985 18.6403 83.0719 18.0323C83.4452 17.4243 83.9519 16.9443 84.5919 16.5923C85.2319 16.2296 85.9572 16.0483 86.7679 16.0483C87.5785 16.0483 88.3039 16.2243 88.9439 16.5763C89.5839 16.9283 90.0907 17.4136 90.4637 18.0323C90.8367 18.6403 91.0237 19.3283 91.0237 20.0963C91.0237 20.8643 90.8367 21.5576 90.4637 22.1763C90.0907 22.795 89.5839 23.2856 88.9439 23.6483C88.3039 24.0003 87.5785 24.1763 86.7679 24.1763ZM86.7679 21.9523C87.1199 21.9523 87.4292 21.8776 87.6959 21.7283C87.9625 21.5683 88.1652 21.3496 88.3039 21.0723C88.4532 20.7843 88.5279 20.459 88.5279 20.0963C88.5279 19.7336 88.4532 19.419 88.3039 19.1523C88.1545 18.875 87.9465 18.6616 87.6799 18.5123C87.4239 18.3523 87.1199 18.2723 86.7679 18.2723C86.4265 18.2723 86.1225 18.3523 85.8559 18.5123C85.5892 18.6616 85.3812 18.875 85.2319 19.1523C85.0825 19.4296 85.0079 19.7496 85.0079 20.1123C85.0079 20.4643 85.0825 20.7843 85.2319 21.0723C85.3812 21.3496 85.5892 21.5683 85.8559 21.7283C86.1225 21.8776 86.4265 21.9523 86.7679 21.9523ZM97.3787 24.0003V19.5683C97.3787 19.163 97.2507 18.8376 96.9947 18.5923C96.7497 18.3363 96.4347 18.2083 96.0507 18.2083C95.7837 18.2083 95.5497 18.267 95.3467 18.3843C95.1437 18.491 94.9837 18.651 94.8667 18.8643C94.7497 19.067 94.6907 19.3016 94.6907 19.5683L93.7467 19.1043C93.7467 18.4963 93.8797 17.963 94.1467 17.5043C94.4137 17.0456 94.7817 16.6936 95.2507 16.4483C95.7307 16.1923 96.2697 16.0643 96.8667 16.0643C97.4427 16.0643 97.9497 16.203 98.3867 16.4803C98.8347 16.747 99.1867 17.1043 99.4427 17.5523C99.6987 18.0003 99.8267 18.491 99.8267 19.0243V24.0003H97.3787ZM92.2427 24.0003V16.2243H94.6907V24.0003H92.2427ZM106.535 24.0003V19.5683C106.535 19.163 106.407 18.8376 106.151 18.5923C105.906 18.3363 105.591 18.2083 105.207 18.2083C104.94 18.2083 104.706 18.267 104.503 18.3843C104.3 18.491 104.14 18.651 104.023 18.8643C103.906 19.067 103.847 19.3016 103.847 19.5683L102.903 19.1043C102.903 18.4963 103.036 17.963 103.303 17.5043C103.57 17.0456 103.938 16.6936 104.407 16.4483C104.887 16.1923 105.426 16.0643 106.023 16.0643C106.599 16.0643 107.106 16.203 107.543 16.4803C107.991 16.747 108.343 17.1043 108.599 17.5523C108.855 18.0003 108.983 18.491 108.983 19.0243V24.0003H106.535ZM101.399 24.0003V16.2243H103.847V24.0003H101.399ZM114.395 24.1763C113.553 24.1763 112.801 24.0056 112.139 23.6643C111.489 23.3123 110.977 22.827 110.603 22.2083C110.23 21.5896 110.043 20.891 110.043 20.1123C110.043 19.3336 110.225 18.6403 110.587 18.0323C110.961 17.4136 111.462 16.9283 112.091 16.5763C112.721 16.2243 113.43 16.0483 114.219 16.0483C114.987 16.0483 115.665 16.2136 116.251 16.5443C116.838 16.875 117.297 17.3336 117.627 17.9203C117.969 18.507 118.139 19.179 118.139 19.9363C118.139 20.075 118.129 20.2243 118.107 20.3843C118.097 20.5336 118.07 20.7096 118.027 20.9123L111.323 20.9283V19.2483L116.987 19.2323L115.931 19.9363C115.921 19.4883 115.851 19.1203 115.723 18.8323C115.595 18.5336 115.403 18.3096 115.147 18.1603C114.902 18.0003 114.598 17.9203 114.235 17.9203C113.851 17.9203 113.515 18.011 113.227 18.1923C112.95 18.363 112.731 18.6083 112.571 18.9283C112.422 19.2483 112.347 19.6376 112.347 20.0963C112.347 20.555 112.427 20.9496 112.587 21.2803C112.758 21.6003 112.993 21.851 113.291 22.0323C113.601 22.203 113.963 22.2883 114.379 22.2883C114.763 22.2883 115.11 22.2243 115.419 22.0963C115.729 21.9576 116.001 21.755 116.235 21.4883L117.579 22.8323C117.195 23.2803 116.731 23.6163 116.187 23.8403C115.643 24.0643 115.046 24.1763 114.395 24.1763ZM123.081 24.1763C122.281 24.1763 121.556 24.0003 120.905 23.6483C120.254 23.2963 119.742 22.811 119.369 22.1923C118.996 21.5736 118.809 20.8803 118.809 20.1123C118.809 19.3336 118.996 18.6403 119.369 18.0323C119.753 17.4136 120.27 16.9283 120.921 16.5763C121.572 16.2243 122.302 16.0483 123.113 16.0483C123.721 16.0483 124.276 16.155 124.777 16.3683C125.289 16.571 125.742 16.8803 126.137 17.2963L124.569 18.8643C124.388 18.6616 124.174 18.5123 123.929 18.4163C123.694 18.3203 123.422 18.2723 123.113 18.2723C122.761 18.2723 122.446 18.3523 122.169 18.5123C121.902 18.6616 121.689 18.875 121.529 19.1523C121.38 19.419 121.305 19.7336 121.305 20.0963C121.305 20.459 121.38 20.779 121.529 21.0563C121.689 21.3336 121.908 21.5523 122.185 21.7123C122.462 21.8723 122.772 21.9523 123.113 21.9523C123.433 21.9523 123.716 21.899 123.961 21.7923C124.217 21.675 124.436 21.515 124.617 21.3123L126.169 22.8803C125.764 23.307 125.305 23.6323 124.793 23.8563C124.281 24.0696 123.71 24.1763 123.081 24.1763ZM128.238 24.0003V13.0083H130.686V24.0003H128.238ZM126.478 18.3043V16.2243H132.446V18.3043H126.478Z" fill="#B91C1C"/>
</g>
</g>
<defs>
<clipPath id="clip0_530_18762">
<rect width="133" height="36" fill="white"/>
</clipPath>
</defs>
</svg>
