<svg width="18" height="19" viewBox="0 0 18 19" fill="none" xmlns="http://www.w3.org/2000/svg">
<g clip-path="url(#clip0_227_4322)">
<path d="M16.8747 3.30273H14.5602C14.4119 3.30277 14.2669 3.34677 14.1436 3.42918C14.0203 3.5116 13.9242 3.62872 13.8674 3.76574C13.8107 3.90277 13.7958 4.05354 13.8247 4.19901C13.8537 4.34447 13.9251 4.4781 14.0299 4.58298L14.8444 5.39748L12.1549 8.08624C12.012 8.22281 11.822 8.29902 11.6243 8.29902C11.4266 8.29902 11.2366 8.22281 11.0937 8.08624L10.9662 7.95798C10.5376 7.54854 9.96775 7.32005 9.37505 7.32005C8.78235 7.32005 8.21246 7.54854 7.78392 7.95798L3.95892 11.783C3.81799 11.9243 3.73898 12.1158 3.73926 12.3154C3.73954 12.515 3.81909 12.7063 3.96042 12.8472C4.10175 12.9882 4.29327 13.0672 4.49286 13.0669C4.69244 13.0666 4.88374 12.9871 5.02467 12.8457L8.84967 9.02074C8.99248 8.88399 9.18257 8.80766 9.3803 8.80766C9.57802 8.80766 9.76811 8.88399 9.91092 9.02074L10.0384 9.14898C10.4671 9.55809 11.037 9.78634 11.6295 9.78634C12.2221 9.78634 12.792 9.55809 13.2207 9.14898L15.9102 6.45949L16.7247 7.27398C16.8299 7.37715 16.9632 7.44702 17.1079 7.47487C17.2526 7.50272 17.4024 7.48733 17.5384 7.4306C17.6744 7.37387 17.7907 7.27833 17.8727 7.15591C17.9548 7.03348 17.9989 6.8896 17.9997 6.74223V4.42773C17.9997 4.12937 17.8811 3.84322 17.6702 3.63224C17.4592 3.42126 17.173 3.30273 16.8747 3.30273Z" fill="#0A0A0A"/>
<path d="M17.25 16.8023H3.75C3.15326 16.8023 2.58097 16.5653 2.15901 16.1433C1.73705 15.7213 1.5 15.149 1.5 14.5523V1.07031C1.5 0.8714 1.42098 0.680635 1.28033 0.539982C1.13968 0.39933 0.948912 0.320313 0.75 0.320312C0.551088 0.320313 0.360322 0.39933 0.21967 0.539982C0.0790176 0.680635 0 0.8714 0 1.07031L0 14.5523C0.00119089 15.5465 0.396661 16.4996 1.09966 17.2026C1.80267 17.9057 2.7558 18.3011 3.75 18.3023H17.25C17.4489 18.3023 17.6397 18.2233 17.7803 18.0826C17.921 17.942 18 17.7512 18 17.5523C18 17.3534 17.921 17.1626 17.7803 17.022C17.6397 16.8813 17.4489 16.8023 17.25 16.8023Z" fill="#0A0A0A"/>
</g>
<defs>
<clipPath id="clip0_227_4322">
<rect width="18" height="18" fill="white" transform="translate(0 0.660156)"/>
</clipPath>
</defs>
</svg>
