<svg width="18" height="19" viewBox="0 0 18 19" fill="none" xmlns="http://www.w3.org/2000/svg">
<g clip-path="url(#clip0_227_4312)">
<path d="M13.5 5.57017C13.5 5.71851 13.456 5.86351 13.3736 5.98685C13.2912 6.11019 13.1741 6.20632 13.037 6.26308C12.9 6.31985 12.7492 6.3347 12.6037 6.30576C12.4582 6.27682 12.3246 6.20539 12.2197 6.1005C12.1148 5.99561 12.0433 5.86198 12.0144 5.71649C11.9855 5.57101 12.0003 5.42021 12.0571 5.28316C12.1139 5.14612 12.21 5.02898 12.3333 4.94657C12.4567 4.86416 12.6017 4.82017 12.75 4.82017C12.9489 4.82017 13.1397 4.89919 13.2803 5.03984C13.421 5.1805 13.5 5.37126 13.5 5.57017ZM10.5 7.07017C10.3517 7.07017 10.2067 7.11416 10.0833 7.19657C9.95998 7.27898 9.86386 7.39612 9.80709 7.53316C9.75032 7.67021 9.73547 7.82101 9.76441 7.96649C9.79335 8.11198 9.86478 8.24561 9.96967 8.3505C10.0746 8.45539 10.2082 8.52682 10.3537 8.55576C10.4992 8.5847 10.65 8.56985 10.787 8.51308C10.9241 8.45632 11.0412 8.36019 11.1236 8.23685C11.206 8.11351 11.25 7.96851 11.25 7.82017C11.25 7.62126 11.171 7.4305 11.0303 7.28984C10.8897 7.14919 10.6989 7.07017 10.5 7.07017ZM8.25 9.32017C8.10166 9.32017 7.95666 9.36416 7.83332 9.44657C7.70998 9.52898 7.61386 9.64612 7.55709 9.78316C7.50032 9.92021 7.48547 10.071 7.51441 10.2165C7.54335 10.362 7.61478 10.4956 7.71967 10.6005C7.82456 10.7054 7.9582 10.7768 8.10368 10.8058C8.24917 10.8347 8.39997 10.8198 8.53701 10.7631C8.67406 10.7063 8.79119 10.6102 8.8736 10.4869C8.95601 10.3635 9 10.2185 9 10.0702C9 9.87126 8.92098 9.6805 8.78033 9.53984C8.63968 9.39919 8.44891 9.32017 8.25 9.32017ZM17.8995 2.53867L17.8432 2.69692C16.7167 5.82292 15.636 8.79517 13.5 11.4352V11.5702C13.4987 12.719 13.2579 13.8548 12.793 14.9054C12.3281 15.9559 11.6493 16.8979 10.8 17.6714C10.3504 18.0862 9.76174 18.3177 9.15 18.3202C8.51331 18.3182 7.90333 18.0641 7.45354 17.6134C7.00376 17.1628 6.75079 16.5524 6.75 15.9157V15.0524C6.19657 14.8739 5.69279 14.568 5.27925 14.1592L5.25 14.1307L3.53025 15.8504C3.3888 15.987 3.19935 16.0626 3.0027 16.0609C2.80605 16.0592 2.61794 15.9803 2.47889 15.8413C2.33983 15.7022 2.26095 15.5141 2.25924 15.3175C2.25754 15.1208 2.33313 14.9314 2.46975 14.7899L4.1895 13.0702L4.16025 13.0417C3.75117 12.6276 3.44452 12.1237 3.26475 11.5702H2.52225C1.85362 11.5696 1.21254 11.3038 0.739673 10.831C0.266809 10.3583 0.000794304 9.7173 0 9.04867C0.00132666 8.39566 0.253127 7.76803 0.7035 7.29517C1.48763 6.48987 2.42909 5.85455 3.46932 5.42876C4.50954 5.00297 5.62627 4.79581 6.75 4.82017H6.885C9.525 2.68492 12.495 1.60417 15.6195 0.478424L15.7815 0.420674C16.0771 0.311985 16.3977 0.290193 16.7054 0.357873C17.013 0.425553 17.2948 0.579877 17.5176 0.80261C17.7403 1.02534 17.8946 1.30718 17.9623 1.61481C18.03 1.92245 18.0082 2.24303 17.8995 2.53867ZM2.52225 10.0702H3.075C3.13134 9.40936 3.36193 8.7753 3.74325 8.23267C4.16178 7.6305 4.61479 7.05304 5.1 6.50317C3.8419 6.76359 2.69172 7.39775 1.8 8.32267C1.6103 8.51705 1.50284 8.77708 1.5 9.04867C1.5004 9.3196 1.60825 9.57931 1.79989 9.77081C1.99154 9.96231 2.25132 10.07 2.52225 10.0702ZM11.775 13.2592C11.237 13.7301 10.6732 14.1705 10.086 14.5784C9.54292 14.956 8.90936 15.1828 8.25 15.2354V15.9157C8.2504 16.1556 8.34592 16.3855 8.51562 16.5551C8.68533 16.7246 8.91535 16.82 9.15525 16.8202C9.39307 16.8167 9.62099 16.7244 9.79425 16.5614C10.7611 15.6763 11.4494 14.5289 11.775 13.2592ZM16.4527 1.86742C16.4328 1.84519 16.4063 1.82977 16.3771 1.82332C16.348 1.81686 16.3175 1.8197 16.29 1.83142L16.1287 1.88992C12.4957 3.19867 9.3585 4.32967 6.657 7.03042C6.0373 7.66947 5.47326 8.36023 4.971 9.09517C4.6655 9.5288 4.52302 10.0564 4.56872 10.5849C4.61441 11.1133 4.84535 11.6087 5.22075 11.9834L6.33975 13.1009C6.71431 13.4761 7.2093 13.7069 7.73743 13.7527C8.26556 13.7985 8.79292 13.6564 9.2265 13.3514C9.96104 12.8492 10.6513 12.2852 11.2897 11.6654C13.9897 8.96542 15.1222 5.82517 16.4317 2.19067L16.4887 2.03242C16.5009 2.00463 16.5039 1.97372 16.4975 1.94409C16.491 1.91446 16.4754 1.88763 16.4527 1.86742Z" fill="#0A0A0A"/>
</g>
<defs>
<clipPath id="clip0_227_4312">
<rect width="18" height="18" fill="white" transform="translate(0 0.660156)"/>
</clipPath>
</defs>
</svg>
