<svg width="18" height="19" viewBox="0 0 18 19" fill="none" xmlns="http://www.w3.org/2000/svg">
<g clip-path="url(#clip0_227_4306)">
<path d="M6.75 11.1602H11.25C11.4489 11.1602 11.6397 11.0811 11.7803 10.9405C11.921 10.7998 12 10.6091 12 10.4102C12 10.2112 11.921 10.0205 11.7803 9.87983C11.6397 9.73917 11.4489 9.66016 11.25 9.66016H6.75C6.55109 9.66016 6.36032 9.73917 6.21967 9.87983C6.07902 10.0205 6 10.2112 6 10.4102C6 10.6091 6.07902 10.7998 6.21967 10.9405C6.36032 11.0811 6.55109 11.1602 6.75 11.1602Z" fill="currentColor"/>
<path d="M14.25 0.660156H3.75C2.7558 0.661347 1.80267 1.05682 1.09966 1.75982C0.396661 2.46282 0.00119089 3.41596 0 4.41016L0 5.16016C0.000218106 5.47646 0.0671256 5.78917 0.196357 6.07787C0.325588 6.36657 0.514239 6.62479 0.75 6.83566V14.9102C0.751191 15.9044 1.14666 16.8575 1.84966 17.5605C2.55267 18.2635 3.5058 18.659 4.5 18.6602H13.5C14.4942 18.659 15.4473 18.2635 16.1503 17.5605C16.8533 16.8575 17.2488 15.9044 17.25 14.9102V6.83566C17.4858 6.62479 17.6744 6.36657 17.8036 6.07787C17.9329 5.78917 17.9998 5.47646 18 5.16016V4.41016C17.9988 3.41596 17.6033 2.46282 16.9003 1.75982C16.1973 1.05682 15.2442 0.661347 14.25 0.660156V0.660156ZM1.5 4.41016C1.5 3.81342 1.73705 3.24112 2.15901 2.81917C2.58097 2.39721 3.15326 2.16016 3.75 2.16016H14.25C14.8467 2.16016 15.419 2.39721 15.841 2.81917C16.2629 3.24112 16.5 3.81342 16.5 4.41016V5.16016C16.5 5.35907 16.421 5.54983 16.2803 5.69049C16.1397 5.83114 15.9489 5.91016 15.75 5.91016H2.25C2.05109 5.91016 1.86032 5.83114 1.71967 5.69049C1.57902 5.54983 1.5 5.35907 1.5 5.16016V4.41016ZM15.75 14.9102C15.75 15.5069 15.5129 16.0792 15.091 16.5011C14.669 16.9231 14.0967 17.1602 13.5 17.1602H4.5C3.90326 17.1602 3.33097 16.9231 2.90901 16.5011C2.48705 16.0792 2.25 15.5069 2.25 14.9102V7.41016H15.75V14.9102Z" fill="currentColor"/>
</g>
<defs>
<clipPath id="clip0_227_4306">
<rect width="18" height="18" fill="white" transform="translate(0 0.660156)"/>
</clipPath>
</defs>
</svg>
