<svg width="18" height="19" viewBox="0 0 18 19" fill="none" xmlns="http://www.w3.org/2000/svg">
<g clip-path="url(#clip0_530_18716)">
<path d="M17.3408 7.4615L11.652 1.772C10.9479 1.06999 9.99426 0.675781 9.00001 0.675781C8.00576 0.675781 7.05208 1.06999 6.34801 1.772L0.659259 7.4615C0.449578 7.66984 0.283336 7.91773 0.170171 8.19079C0.0570054 8.46386 -0.0008328 8.75667 9.05961e-06 9.05225V16.415C9.05961e-06 17.0117 0.237062 17.584 0.659019 18.006C1.08098 18.4279 1.65327 18.665 2.25001 18.665H15.75C16.3467 18.665 16.919 18.4279 17.341 18.006C17.763 17.584 18 17.0117 18 16.415V9.05225C18.0009 8.75667 17.943 8.46386 17.8298 8.19079C17.7167 7.91773 17.5504 7.66984 17.3408 7.4615V7.4615ZM11.25 17.165H6.75001V14.2145C6.75001 13.6178 6.98706 13.0455 7.40902 12.6235C7.83098 12.2016 8.40327 11.9645 9.00001 11.9645C9.59675 11.9645 10.169 12.2016 10.591 12.6235C11.013 13.0455 11.25 13.6178 11.25 14.2145V17.165ZM16.5 16.415C16.5 16.6139 16.421 16.8047 16.2803 16.9453C16.1397 17.086 15.9489 17.165 15.75 17.165H12.75V14.2145C12.75 13.2199 12.3549 12.2661 11.6517 11.5629C10.9484 10.8596 9.99457 10.4645 9.00001 10.4645C8.00545 10.4645 7.05162 10.8596 6.34836 11.5629C5.6451 12.2661 5.25001 13.2199 5.25001 14.2145V17.165H2.25001C2.0511 17.165 1.86033 17.086 1.71968 16.9453C1.57903 16.8047 1.50001 16.6139 1.50001 16.415V9.05225C1.5007 8.85349 1.57965 8.66299 1.71976 8.522L7.40851 2.83475C7.83128 2.41395 8.40351 2.17771 9.00001 2.17771C9.59651 2.17771 10.1687 2.41395 10.5915 2.83475L16.2803 8.52425C16.4198 8.66469 16.4987 8.85427 16.5 9.05225V16.415Z" fill="white"/>
</g>
<defs>
<clipPath id="clip0_530_18716">
<rect width="18" height="18" fill="white" transform="translate(0 0.660156)"/>
</clipPath>
</defs>
</svg>
