<svg width="18" height="19" viewBox="0 0 18 19" fill="none" xmlns="http://www.w3.org/2000/svg">
<g clip-path="url(#clip0_227_4291)">
<path d="M15.75 9.66016H13.5C13.1022 9.66016 12.7206 9.81819 12.4393 10.0995C12.158 10.3808 12 10.7623 12 11.1602C12 11.558 11.842 11.9395 11.5607 12.2208C11.2794 12.5021 10.8978 12.6602 10.5 12.6602H7.5C7.10218 12.6602 6.72064 12.5021 6.43934 12.2208C6.15804 11.9395 6 11.558 6 11.1602C6 10.7623 5.84196 10.3808 5.56066 10.0995C5.27936 9.81819 4.89782 9.66016 4.5 9.66016H2.25C1.65326 9.66016 1.08097 9.89721 0.65901 10.3192C0.237053 10.7411 0 11.3134 0 11.9102L0 14.9102C0.00119089 15.9044 0.396661 16.8575 1.09966 17.5605C1.80267 18.2635 2.7558 18.659 3.75 18.6602H14.25C15.2442 18.659 16.1973 18.2635 16.9003 17.5605C17.6033 16.8575 17.9988 15.9044 18 14.9102V11.9102C18 11.3134 17.7629 10.7411 17.341 10.3192C16.919 9.89721 16.3467 9.66016 15.75 9.66016ZM16.5 14.9102C16.5 15.5069 16.2629 16.0792 15.841 16.5011C15.419 16.9231 14.8467 17.1602 14.25 17.1602H3.75C3.15326 17.1602 2.58097 16.9231 2.15901 16.5011C1.73705 16.0792 1.5 15.5069 1.5 14.9102V11.9102C1.5 11.7112 1.57902 11.5205 1.71967 11.3798C1.86032 11.2392 2.05109 11.1602 2.25 11.1602H4.5C4.5 11.9558 4.81607 12.7189 5.37868 13.2815C5.94129 13.8441 6.70435 14.1602 7.5 14.1602H10.5C11.2956 14.1602 12.0587 13.8441 12.6213 13.2815C13.1839 12.7189 13.5 11.9558 13.5 11.1602H15.75C15.9489 11.1602 16.1397 11.2392 16.2803 11.3798C16.421 11.5205 16.5 11.7112 16.5 11.9102V14.9102Z" fill="#0A0A0A"/>
<path d="M2.25 8.16015H15.75C15.9489 8.16015 16.1397 8.08114 16.2803 7.94048C16.421 7.79983 16.5 7.60907 16.5 7.41015C16.5 7.21124 16.421 7.02048 16.2803 6.87983C16.1397 6.73917 15.9489 6.66016 15.75 6.66016H2.25C2.05109 6.66016 1.86032 6.73917 1.71967 6.87983C1.57902 7.02048 1.5 7.21124 1.5 7.41015C1.5 7.60907 1.57902 7.79983 1.71967 7.94048C1.86032 8.08114 2.05109 8.16015 2.25 8.16015Z" fill="#0A0A0A"/>
<path d="M2.25 5.16015H15.75C15.9489 5.16015 16.1397 5.08114 16.2803 4.94048C16.421 4.79983 16.5 4.60907 16.5 4.41015C16.5 4.21124 16.421 4.02048 16.2803 3.87983C16.1397 3.73917 15.9489 3.66016 15.75 3.66016H2.25C2.05109 3.66016 1.86032 3.73917 1.71967 3.87983C1.57902 4.02048 1.5 4.21124 1.5 4.41015C1.5 4.60907 1.57902 4.79983 1.71967 4.94048C1.86032 5.08114 2.05109 5.16015 2.25 5.16015Z" fill="#0A0A0A"/>
</g>
<defs>
<clipPath id="clip0_227_4291">
<rect width="18" height="18" fill="white" transform="translate(0 0.660156)"/>
</clipPath>
</defs>
</svg>
