<svg width="14" height="24" viewBox="0 0 14 24" fill="none" xmlns="http://www.w3.org/2000/svg">
<path d="M8.93224 4C9.74568 4.00079 10.5256 4.32428 11.1008 4.89947C11.676 5.47466 11.9994 6.25456 12.0002 7.068C12.0002 7.33322 12.1056 7.58757 12.2931 7.77511C12.4807 7.96264 12.735 8.068 13.0002 8.068C13.2655 8.068 13.5198 7.96264 13.7074 7.77511C13.8949 7.58757 14.0002 7.33322 14.0002 7.068V7C14.0002 6.981 14.0002 6.964 14.0002 6.945C13.9669 5.62273 13.4184 4.36578 12.4717 3.44206C11.525 2.51833 10.2549 2.00088 8.93224 2H8.00024V1C8.00024 0.734784 7.89489 0.48043 7.70735 0.292893C7.51981 0.105357 7.26546 0 7.00024 0C6.73503 0 6.48067 0.105357 6.29314 0.292893C6.1056 0.48043 6.00024 0.734784 6.00024 1V2H5.06824C3.86556 2.00128 2.70253 2.43023 1.78704 3.21018C0.871543 3.99012 0.263254 5.07022 0.0708971 6.25742C-0.121459 7.44462 0.114655 8.66154 0.737036 9.69066C1.35942 10.7198 2.3275 11.494 3.46824 11.875L6.00024 12.72V20H5.06824C4.2548 19.9992 3.47491 19.6757 2.89972 19.1005C2.32453 18.5253 2.00104 17.7454 2.00024 16.932C2.00024 16.6668 1.89489 16.4124 1.70735 16.2249C1.51981 16.0374 1.26546 15.932 1.00024 15.932C0.735028 15.932 0.480674 16.0374 0.293138 16.2249C0.105601 16.4124 0.000244141 16.6668 0.000244141 16.932V17C0.000244141 17.019 0.000244141 17.036 0.000244141 17.055C0.0336175 18.3773 0.582107 19.6342 1.52881 20.5579C2.47551 21.4817 3.74555 21.9991 5.06824 22H6.00024V23C6.00024 23.2652 6.1056 23.5196 6.29314 23.7071C6.48067 23.8946 6.73503 24 7.00024 24C7.26546 24 7.51981 23.8946 7.70735 23.7071C7.89489 23.5196 8.00024 23.2652 8.00024 23V22H8.93224C10.1349 21.9987 11.298 21.5698 12.2134 20.7898C13.1289 20.0099 13.7372 18.9298 13.9296 17.7426C14.1219 16.5554 13.8858 15.3385 13.2635 14.3093C12.6411 13.2802 11.673 12.506 10.5322 12.125L8.00024 11.28V4H8.93224ZM9.90224 14.021C10.5937 14.2511 11.1806 14.7198 11.558 15.3432C11.9353 15.9666 12.0785 16.704 11.9618 17.4233C11.8451 18.1426 11.4762 18.7969 10.9211 19.269C10.366 19.7411 9.66096 20.0003 8.93224 20H8.00024V13.387L9.90224 14.021ZM6.00024 10.613L4.10024 9.979C3.40898 9.74893 2.82215 9.28037 2.44478 8.65718C2.0674 8.034 1.92411 7.29685 2.04055 6.57768C2.15698 5.8585 2.52554 5.20422 3.08028 4.73194C3.63501 4.25966 4.3397 4.00021 5.06824 4H6.00024V10.613Z" fill="currentColor"/>
</svg>
