<svg width="18" height="19" viewBox="0 0 18 19" fill="none" xmlns="http://www.w3.org/2000/svg">
<g clip-path="url(#clip0_227_4317)">
<path d="M18 12.6596V16.4096C18 17.0064 17.7629 17.5787 17.341 18.0006C16.919 18.4226 16.3467 18.6596 15.75 18.6596H12C10.9478 18.6586 9.91443 18.3808 9.00349 17.8543C8.09255 17.3277 7.33609 16.5709 6.81 15.6596C7.3754 15.6556 7.93888 15.5933 8.4915 15.4736C8.91236 15.9999 9.44625 16.4247 10.0536 16.7165C10.6609 17.0084 11.3262 17.1598 12 17.1596H15.75C15.9489 17.1596 16.1397 17.0806 16.2803 16.94C16.421 16.7993 16.5 16.6086 16.5 16.4096V12.6596C16.4998 11.9856 16.3479 11.3202 16.0555 10.7128C15.7631 10.1055 15.3378 9.57171 14.811 9.15115C14.9316 8.59863 14.995 8.03515 15 7.46965C15.9112 7.99573 16.6681 8.75219 17.1946 9.66314C17.7212 10.5741 17.9989 11.6075 18 12.6596ZM13.4827 7.8979C13.5529 6.93163 13.4142 5.96158 13.0761 5.05367C12.7381 4.14576 12.2085 3.32126 11.5234 2.63621C10.8384 1.95116 10.0139 1.4216 9.10598 1.08351C8.19807 0.745432 7.22802 0.606751 6.26175 0.676896C4.54944 0.872445 2.96769 1.68728 1.81438 2.96795C0.66107 4.24863 0.0157704 5.90677 0 7.63015L0 11.4101C0 13.3091 1.13025 14.1596 2.25 14.1596H6.525C8.2491 14.1448 9.90826 13.4999 11.1898 12.3466C12.4714 11.1932 13.2869 9.61091 13.4827 7.8979ZM10.4625 3.6979C10.995 4.23152 11.4066 4.8733 11.6695 5.57979C11.9324 6.28628 12.0405 7.041 11.9865 7.7929C11.8264 9.13065 11.1829 10.3638 10.177 11.2601C9.17112 12.1564 7.87229 12.6542 6.525 12.6596H2.25C1.554 12.6596 1.5 11.7034 1.5 11.4101V7.63015C1.50625 6.28343 2.00449 4.98542 2.90094 3.9804C3.79739 2.97538 5.03025 2.33265 6.3675 2.17315C6.492 2.16415 6.6165 2.15965 6.741 2.15965C7.43195 2.159 8.11626 2.29452 8.75481 2.55846C9.39337 2.8224 9.97365 3.20959 10.4625 3.6979Z" fill="currentColor"/>
</g>
<defs>
<clipPath id="clip0_227_4317">
<rect width="18" height="18" fill="white" transform="translate(0 0.660156)"/>
</clipPath>
</defs>
</svg>
