<svg width="30" height="30" viewBox="0 0 30 30" fill="none" xmlns="http://www.w3.org/2000/svg">
<path d="M22.4993 19.375C22.3347 19.376 22.1717 19.3444 22.0194 19.2822C21.8671 19.22 21.7286 19.1284 21.6118 19.0125L15.8868 13.275C15.7706 13.1579 15.6323 13.0649 15.48 13.0014C15.3277 12.9379 15.1643 12.9053 14.9993 12.9053C14.8342 12.9053 14.6709 12.9379 14.5185 13.0014C14.3662 13.0649 14.228 13.1579 14.1118 13.275L8.38676 19.0125C8.15138 19.2479 7.83213 19.3801 7.49926 19.3801C7.16638 19.3801 6.84713 19.2479 6.61176 19.0125C6.37638 18.7771 6.24414 18.4579 6.24414 18.125C6.24414 17.9602 6.27661 17.797 6.33968 17.6447C6.40276 17.4924 6.49521 17.3541 6.61176 17.2375L12.3493 11.5125C13.0617 10.8281 14.0113 10.4458 14.9993 10.4458C15.9872 10.4458 16.9368 10.8281 17.6493 11.5125L23.3868 17.2375C23.5039 17.3537 23.5969 17.492 23.6604 17.6443C23.7238 17.7966 23.7565 17.96 23.7565 18.125C23.7565 18.29 23.7238 18.4534 23.6604 18.6057C23.5969 18.758 23.5039 18.8963 23.3868 19.0125C23.27 19.1284 23.1314 19.22 22.9791 19.2822C22.8268 19.3444 22.6638 19.376 22.4993 19.375Z" fill="white"/>
</svg>
