<svg width="133" height="36" viewBox="0 0 133 36" fill="none" xmlns="http://www.w3.org/2000/svg">
<g clip-path="url(#clip0_161_16270)">
<path d="M2.59766 4.98853L25.3569 18.0001L2.59766 31.0116V4.98853Z" stroke="#B91C1C" stroke-width="5"/>
<path d="M39.4044 24.0001V22.0481H42.0604C42.5511 22.0481 42.9351 21.9041 43.2124 21.6161C43.4898 21.3281 43.6284 20.9761 43.6284 20.5601C43.6284 20.2721 43.5644 20.0161 43.4364 19.7921C43.3084 19.5681 43.1271 19.3921 42.8924 19.2641C42.6684 19.1361 42.3911 19.0721 42.0604 19.0721H39.4044V17.1681H41.8524C42.2684 17.1681 42.6044 17.0668 42.8604 16.8641C43.1164 16.6508 43.2444 16.3308 43.2444 15.9041C43.2444 15.4881 43.1164 15.1788 42.8604 14.9761C42.6044 14.7628 42.2684 14.6561 41.8524 14.6561H39.4044V12.7041H42.3324C43.0578 12.7041 43.6711 12.8374 44.1724 13.1041C44.6844 13.3708 45.0738 13.7281 45.3404 14.1761C45.6071 14.6241 45.7404 15.1201 45.7404 15.6641C45.7404 16.3574 45.5164 16.9441 45.0684 17.4241C44.6204 17.9041 43.9591 18.2348 43.0844 18.4161L43.1484 17.5681C44.0978 17.7494 44.8284 18.1174 45.3404 18.6721C45.8631 19.2268 46.1244 19.9094 46.1244 20.7201C46.1244 21.3388 45.9698 21.8988 45.6604 22.4001C45.3618 22.8908 44.9244 23.2801 44.3484 23.5681C43.7831 23.8561 43.1004 24.0001 42.3004 24.0001H39.4044ZM37.4844 24.0001V12.7041H39.9644V24.0001H37.4844ZM51.3504 24.1761C50.5078 24.1761 49.7558 24.0054 49.0944 23.6641C48.4438 23.3121 47.9318 22.8268 47.5584 22.2081C47.1851 21.5894 46.9984 20.8908 46.9984 20.1121C46.9984 19.3334 47.1798 18.6401 47.5424 18.0321C47.9158 17.4134 48.4171 16.9281 49.0464 16.5761C49.6758 16.2241 50.3851 16.0481 51.1744 16.0481C51.9424 16.0481 52.6198 16.2134 53.2064 16.5441C53.7931 16.8748 54.2518 17.3334 54.5824 17.9201C54.9238 18.5068 55.0944 19.1788 55.0944 19.9361C55.0944 20.0748 55.0838 20.2241 55.0624 20.3841C55.0518 20.5334 55.0251 20.7094 54.9824 20.9121L48.2784 20.9281V19.2481L53.9424 19.2321L52.8864 19.9361C52.8758 19.4881 52.8064 19.1201 52.6784 18.8321C52.5504 18.5334 52.3584 18.3094 52.1024 18.1601C51.8571 18.0001 51.5531 17.9201 51.1904 17.9201C50.8064 17.9201 50.4704 18.0108 50.1824 18.1921C49.9051 18.3628 49.6864 18.6081 49.5264 18.9281C49.3771 19.2481 49.3024 19.6374 49.3024 20.0961C49.3024 20.5548 49.3824 20.9494 49.5424 21.2801C49.7131 21.6001 49.9478 21.8508 50.2464 22.0321C50.5558 22.2028 50.9184 22.2881 51.3344 22.2881C51.7184 22.2881 52.0651 22.2241 52.3744 22.0961C52.6838 21.9574 52.9558 21.7548 53.1904 21.4881L54.5344 22.8321C54.1504 23.2801 53.6864 23.6161 53.1424 23.8401C52.5984 24.0641 52.0011 24.1761 51.3504 24.1761ZM59.5241 24.1601C58.8094 24.1601 58.1694 23.9841 57.6041 23.6321C57.0494 23.2801 56.6067 22.8001 56.2761 22.1921C55.9561 21.5841 55.7961 20.8908 55.7961 20.1121C55.7961 19.3334 55.9561 18.6401 56.2761 18.0321C56.6067 17.4241 57.0494 16.9441 57.6041 16.5921C58.1694 16.2401 58.8094 16.0641 59.5241 16.0641C60.0467 16.0641 60.5161 16.1654 60.9321 16.3681C61.3587 16.5708 61.7054 16.8534 61.9721 17.2161C62.2387 17.5681 62.3881 17.9734 62.4201 18.4321V21.7921C62.3881 22.2508 62.2387 22.6614 61.9721 23.0241C61.7161 23.3761 61.3747 23.6534 60.9481 23.8561C60.5214 24.0588 60.0467 24.1601 59.5241 24.1601ZM60.0201 21.9521C60.5427 21.9521 60.9641 21.7814 61.2841 21.4401C61.6041 21.0881 61.7641 20.6454 61.7641 20.1121C61.7641 19.7494 61.6894 19.4294 61.5401 19.1521C61.4014 18.8748 61.1987 18.6614 60.9321 18.5121C60.6761 18.3521 60.3774 18.2721 60.0361 18.2721C59.6947 18.2721 59.3907 18.3521 59.1241 18.5121C58.8681 18.6614 58.6601 18.8748 58.5001 19.1521C58.3507 19.4294 58.2761 19.7494 58.2761 20.1121C58.2761 20.4641 58.3507 20.7788 58.5001 21.0561C58.6494 21.3334 58.8574 21.5521 59.1241 21.7121C59.3907 21.8721 59.6894 21.9521 60.0201 21.9521ZM61.6681 24.0001V21.9041L62.0361 20.0161L61.6681 18.1281V16.2241H64.0681V24.0001H61.6681ZM66.8957 24.0001V13.0081H69.3437V24.0001H66.8957ZM65.1357 18.3041V16.2241H71.1037V18.3041H65.1357Z" fill="#0A0A0A"/>
<path d="M77.7641 24.1761C76.9214 24.1761 76.1374 24.0321 75.4121 23.7441C74.6974 23.4454 74.0681 23.0294 73.5241 22.4961C72.9908 21.9628 72.5748 21.3441 72.2761 20.6401C71.9774 19.9254 71.8281 19.1574 71.8281 18.3361C71.8281 17.5148 71.9774 16.7521 72.2761 16.0481C72.5748 15.3334 72.9908 14.7148 73.5241 14.1921C74.0574 13.6694 74.6814 13.2641 75.3961 12.9761C76.1214 12.6774 76.9054 12.5281 77.7481 12.5281C78.6441 12.5281 79.4388 12.6721 80.1321 12.9601C80.8361 13.2481 81.4494 13.6428 81.9721 14.1441L80.2921 15.8401C79.9934 15.5201 79.6308 15.2694 79.2041 15.0881C78.7881 14.9068 78.3028 14.8161 77.7481 14.8161C77.2574 14.8161 76.8041 14.9014 76.3881 15.0721C75.9828 15.2321 75.6308 15.4668 75.3321 15.7761C75.0441 16.0854 74.8148 16.4588 74.6441 16.8961C74.4841 17.3334 74.4041 17.8134 74.4041 18.3361C74.4041 18.8694 74.4841 19.3548 74.6441 19.7921C74.8148 20.2294 75.0441 20.6028 75.3321 20.9121C75.6308 21.2214 75.9828 21.4614 76.3881 21.6321C76.8041 21.8028 77.2574 21.8881 77.7481 21.8881C78.3241 21.8881 78.8254 21.7974 79.2521 21.6161C79.6788 21.4348 80.0468 21.1841 80.3561 20.8641L82.0521 22.5601C81.5081 23.0614 80.8841 23.4561 80.1801 23.7441C79.4868 24.0321 78.6814 24.1761 77.7641 24.1761ZM86.7679 24.1761C85.9679 24.1761 85.2425 24.0001 84.5919 23.6481C83.9519 23.2854 83.4452 22.7948 83.0719 22.1761C82.6985 21.5574 82.5119 20.8641 82.5119 20.0961C82.5119 19.3281 82.6985 18.6401 83.0719 18.0321C83.4452 17.4241 83.9519 16.9441 84.5919 16.5921C85.2319 16.2294 85.9572 16.0481 86.7679 16.0481C87.5785 16.0481 88.3039 16.2241 88.9439 16.5761C89.5839 16.9281 90.0907 17.4134 90.4637 18.0321C90.8367 18.6401 91.0237 19.3281 91.0237 20.0961C91.0237 20.8641 90.8367 21.5574 90.4637 22.1761C90.0907 22.7948 89.5839 23.2854 88.9439 23.6481C88.3039 24.0001 87.5785 24.1761 86.7679 24.1761ZM86.7679 21.9521C87.1199 21.9521 87.4292 21.8774 87.6959 21.7281C87.9625 21.5681 88.1652 21.3494 88.3039 21.0721C88.4532 20.7841 88.5279 20.4588 88.5279 20.0961C88.5279 19.7334 88.4532 19.4188 88.3039 19.1521C88.1545 18.8748 87.9465 18.6614 87.6799 18.5121C87.4239 18.3521 87.1199 18.2721 86.7679 18.2721C86.4265 18.2721 86.1225 18.3521 85.8559 18.5121C85.5892 18.6614 85.3812 18.8748 85.2319 19.1521C85.0825 19.4294 85.0079 19.7494 85.0079 20.1121C85.0079 20.4641 85.0825 20.7841 85.2319 21.0721C85.3812 21.3494 85.5892 21.5681 85.8559 21.7281C86.1225 21.8774 86.4265 21.9521 86.7679 21.9521ZM97.3787 24.0001V19.5681C97.3787 19.1628 97.2507 18.8374 96.9947 18.5921C96.7497 18.3361 96.4347 18.2081 96.0507 18.2081C95.7837 18.2081 95.5497 18.2668 95.3467 18.3841C95.1437 18.4908 94.9837 18.6508 94.8667 18.8641C94.7497 19.0668 94.6907 19.3014 94.6907 19.5681L93.7467 19.1041C93.7467 18.4961 93.8797 17.9628 94.1467 17.5041C94.4137 17.0454 94.7817 16.6934 95.2507 16.4481C95.7307 16.1921 96.2697 16.0641 96.8667 16.0641C97.4427 16.0641 97.9497 16.2028 98.3867 16.4801C98.8347 16.7468 99.1867 17.1041 99.4427 17.5521C99.6987 18.0001 99.8267 18.4908 99.8267 19.0241V24.0001H97.3787ZM92.2427 24.0001V16.2241H94.6907V24.0001H92.2427ZM106.535 24.0001V19.5681C106.535 19.1628 106.407 18.8374 106.151 18.5921C105.906 18.3361 105.591 18.2081 105.207 18.2081C104.94 18.2081 104.706 18.2668 104.503 18.3841C104.3 18.4908 104.14 18.6508 104.023 18.8641C103.906 19.0668 103.847 19.3014 103.847 19.5681L102.903 19.1041C102.903 18.4961 103.036 17.9628 103.303 17.5041C103.57 17.0454 103.938 16.6934 104.407 16.4481C104.887 16.1921 105.426 16.0641 106.023 16.0641C106.599 16.0641 107.106 16.2028 107.543 16.4801C107.991 16.7468 108.343 17.1041 108.599 17.5521C108.855 18.0001 108.983 18.4908 108.983 19.0241V24.0001H106.535ZM101.399 24.0001V16.2241H103.847V24.0001H101.399ZM114.395 24.1761C113.553 24.1761 112.801 24.0054 112.139 23.6641C111.489 23.3121 110.977 22.8268 110.603 22.2081C110.23 21.5894 110.043 20.8908 110.043 20.1121C110.043 19.3334 110.225 18.6401 110.587 18.0321C110.961 17.4134 111.462 16.9281 112.091 16.5761C112.721 16.2241 113.43 16.0481 114.219 16.0481C114.987 16.0481 115.665 16.2134 116.251 16.5441C116.838 16.8748 117.297 17.3334 117.627 17.9201C117.969 18.5068 118.139 19.1788 118.139 19.9361C118.139 20.0748 118.129 20.2241 118.107 20.3841C118.097 20.5334 118.07 20.7094 118.027 20.9121L111.323 20.9281V19.2481L116.987 19.2321L115.931 19.9361C115.921 19.4881 115.851 19.1201 115.723 18.8321C115.595 18.5334 115.403 18.3094 115.147 18.1601C114.902 18.0001 114.598 17.9201 114.235 17.9201C113.851 17.9201 113.515 18.0108 113.227 18.1921C112.95 18.3628 112.731 18.6081 112.571 18.9281C112.422 19.2481 112.347 19.6374 112.347 20.0961C112.347 20.5548 112.427 20.9494 112.587 21.2801C112.758 21.6001 112.993 21.8508 113.291 22.0321C113.601 22.2028 113.963 22.2881 114.379 22.2881C114.763 22.2881 115.11 22.2241 115.419 22.0961C115.729 21.9574 116.001 21.7548 116.235 21.4881L117.579 22.8321C117.195 23.2801 116.731 23.6161 116.187 23.8401C115.643 24.0641 115.046 24.1761 114.395 24.1761ZM123.081 24.1761C122.281 24.1761 121.556 24.0001 120.905 23.6481C120.254 23.2961 119.742 22.8108 119.369 22.1921C118.996 21.5734 118.809 20.8801 118.809 20.1121C118.809 19.3334 118.996 18.6401 119.369 18.0321C119.753 17.4134 120.27 16.9281 120.921 16.5761C121.572 16.2241 122.302 16.0481 123.113 16.0481C123.721 16.0481 124.276 16.1548 124.777 16.3681C125.289 16.5708 125.742 16.8801 126.137 17.2961L124.569 18.8641C124.388 18.6614 124.174 18.5121 123.929 18.4161C123.694 18.3201 123.422 18.2721 123.113 18.2721C122.761 18.2721 122.446 18.3521 122.169 18.5121C121.902 18.6614 121.689 18.8748 121.529 19.1521C121.38 19.4188 121.305 19.7334 121.305 20.0961C121.305 20.4588 121.38 20.7788 121.529 21.0561C121.689 21.3334 121.908 21.5521 122.185 21.7121C122.462 21.8721 122.772 21.9521 123.113 21.9521C123.433 21.9521 123.716 21.8988 123.961 21.7921C124.217 21.6748 124.436 21.5148 124.617 21.3121L126.169 22.8801C125.764 23.3068 125.305 23.6321 124.793 23.8561C124.281 24.0694 123.71 24.1761 123.081 24.1761ZM128.238 24.0001V13.0081H130.686V24.0001H128.238ZM126.478 18.3041V16.2241H132.446V18.3041H126.478Z" fill="currentColor"/>
</g>
<defs>
<clipPath id="clip0_161_16270">
<rect width="133" height="36" fill="currentColor"/>
</clipPath>
</defs>
</svg>
