<svg width="9" height="5" viewBox="0 0 9 5" fill="none" xmlns="http://www.w3.org/2000/svg">
<path d="M8.11021 0.747092C8.05617 0.692604 7.99187 0.649356 7.92103 0.619843C7.85019 0.590329 7.77421 0.575134 7.69746 0.575134C7.62072 0.575134 7.54474 0.590329 7.4739 0.619843C7.40306 0.649356 7.33876 0.692604 7.28472 0.747092L4.6222 3.4096C4.56816 3.46409 4.50386 3.50734 4.43302 3.53685C4.36218 3.56636 4.2862 3.58156 4.20945 3.58156C4.13271 3.58156 4.05673 3.56636 3.98589 3.53685C3.91505 3.50734 3.85075 3.46409 3.79671 3.4096L1.13419 0.747092C1.08015 0.692604 1.01585 0.649356 0.945012 0.619843C0.874171 0.590329 0.798187 0.575134 0.721444 0.575134C0.644701 0.575134 0.568717 0.590329 0.497876 0.619843C0.427035 0.649356 0.362739 0.692604 0.308696 0.747092C0.200422 0.856012 0.139648 1.00335 0.139648 1.15693C0.139648 1.31051 0.200422 1.45785 0.308696 1.56677L2.97702 4.2351C3.30403 4.56169 3.74729 4.74513 4.20945 4.74513C4.67162 4.74513 5.11488 4.56169 5.44188 4.2351L8.11021 1.56677C8.21849 1.45785 8.27926 1.31051 8.27926 1.15693C8.27926 1.00335 8.21849 0.856012 8.11021 0.747092Z" fill="#0A0A0A"/>
</svg>
