<svg width="8" height="16" viewBox="0 0 8 16" fill="none" xmlns="http://www.w3.org/2000/svg">
<path d="M7.49999 2.00018C7.50075 2.13179 7.47552 2.26225 7.42576 2.38409C7.37599 2.50593 7.30267 2.61674 7.20999 2.71018L2.62 7.29018C2.52627 7.38314 2.45187 7.49374 2.40111 7.6156C2.35034 7.73746 2.3242 7.86817 2.3242 8.00018C2.3242 8.13219 2.35034 8.2629 2.40111 8.38476C2.45187 8.50662 2.52627 8.61722 2.62 8.71018L7.20999 13.2902C7.39829 13.4785 7.50408 13.7339 7.50408 14.0002C7.50408 14.2665 7.39829 14.5219 7.20999 14.7102C7.02168 14.8985 6.76629 15.0043 6.49999 15.0043C6.36813 15.0043 6.23756 14.9783 6.11574 14.9278C5.99392 14.8774 5.88323 14.8034 5.78999 14.7102L1.21 10.1202C0.662434 9.55024 0.356628 8.79054 0.356628 8.00018C0.356628 7.20982 0.662434 6.45012 1.21 5.88018L5.78999 1.29018C5.88295 1.19645 5.99355 1.12206 6.11541 1.07129C6.23727 1.02052 6.36798 0.994383 6.49999 0.994383C6.632 0.994383 6.76271 1.02052 6.88457 1.07129C7.00642 1.12206 7.11703 1.19645 7.20999 1.29018C7.30267 1.38362 7.37599 1.49444 7.42576 1.61627C7.47552 1.73811 7.50075 1.86857 7.49999 2.00018Z" fill="black"/>
</svg>
