<svg width="24" height="24" viewBox="0 0 24 24" fill="none" xmlns="http://www.w3.org/2000/svg">
<g clip-path="url(#clip0_157_13713)">
<path d="M23.562 21.4455L18.9168 16.7984C22.3926 12.1536 21.4448 5.57058 16.8001 2.09486C12.1553 -1.38086 5.57229 -0.433144 2.09657 4.21163C-1.37915 8.8564 -0.431435 15.4394 4.21334 18.9151C7.94441 21.7071 13.0689 21.7071 16.8001 18.9151L21.4472 23.5622C22.0312 24.1462 22.978 24.1462 23.5619 23.5622C24.1459 22.9782 24.1459 22.0314 23.5619 21.4475L23.562 21.4455ZM10.5454 18.0182C6.41737 18.0182 3.07096 14.6718 3.07096 10.5437C3.07096 6.41566 6.41737 3.06925 10.5454 3.06925C14.6735 3.06925 18.0199 6.41566 18.0199 10.5437C18.0155 14.6699 14.6717 18.0138 10.5454 18.0182Z" fill="white"/>
</g>
<defs>
<clipPath id="clip0_157_13713">
<rect width="24" height="24" fill="white"/>
</clipPath>
</defs>
</svg>
