<svg width="20" height="21" viewBox="0 0 20 21" fill="none" xmlns="http://www.w3.org/2000/svg">
<g clip-path="url(#clip0_330_14264)">
<path d="M5.83333 0.660156H3.33333C2.44928 0.660156 1.60143 1.01135 0.976311 1.63647C0.35119 2.26159 0 3.10943 0 3.99349L0 6.49349C0 7.37754 0.35119 8.22539 0.976311 8.85051C1.60143 9.47563 2.44928 9.82682 3.33333 9.82682H5.83333C6.71739 9.82682 7.56524 9.47563 8.19036 8.85051C8.81548 8.22539 9.16667 7.37754 9.16667 6.49349V3.99349C9.16667 3.10943 8.81548 2.26159 8.19036 1.63647C7.56524 1.01135 6.71739 0.660156 5.83333 0.660156V0.660156ZM7.5 6.49349C7.5 6.93552 7.32441 7.35944 7.01184 7.672C6.69928 7.98456 6.27536 8.16016 5.83333 8.16016H3.33333C2.89131 8.16016 2.46738 7.98456 2.15482 7.672C1.84226 7.35944 1.66667 6.93552 1.66667 6.49349V3.99349C1.66667 3.55146 1.84226 3.12754 2.15482 2.81498C2.46738 2.50242 2.89131 2.32682 3.33333 2.32682H5.83333C6.27536 2.32682 6.69928 2.50242 7.01184 2.81498C7.32441 3.12754 7.5 3.55146 7.5 3.99349V6.49349Z" fill="#0A0A0A"/>
<path d="M5.83333 11.4935H3.33333C2.44928 11.4935 1.60143 11.8447 0.976311 12.4698C0.35119 13.0949 0 13.9428 0 14.8268L0 17.3268C0 18.2109 0.35119 19.0587 0.976311 19.6838C1.60143 20.309 2.44928 20.6601 3.33333 20.6601H5.83333C6.71739 20.6601 7.56524 20.309 8.19036 19.6838C8.81548 19.0587 9.16667 18.2109 9.16667 17.3268V14.8268C9.16667 13.9428 8.81548 13.0949 8.19036 12.4698C7.56524 11.8447 6.71739 11.4935 5.83333 11.4935ZM7.5 17.3268C7.5 17.7688 7.32441 18.1928 7.01184 18.5053C6.69928 18.8179 6.27536 18.9935 5.83333 18.9935H3.33333C2.89131 18.9935 2.46738 18.8179 2.15482 18.5053C1.84226 18.1928 1.66667 17.7688 1.66667 17.3268V14.8268C1.66667 14.3848 1.84226 13.9609 2.15482 13.6483C2.46738 13.3357 2.89131 13.1601 3.33333 13.1601H5.83333C6.27536 13.1601 6.69928 13.3357 7.01184 13.6483C7.32441 13.9609 7.5 14.3848 7.5 14.8268V17.3268Z" fill="#0A0A0A"/>
<path d="M18.5777 16.5343L16.6668 18.4426V2.8543L18.5777 4.76263C18.6551 4.84 18.747 4.90137 18.8481 4.94322C18.9493 4.98507 19.0577 5.00659 19.1671 5.00655C19.2766 5.00651 19.385 4.98491 19.4861 4.94299C19.5872 4.90107 19.6791 4.83964 19.7564 4.76222C19.8338 4.68479 19.8952 4.59288 19.937 4.49174C19.9789 4.3906 20.0004 4.28221 20.0003 4.17275C20.0003 4.0633 19.9787 3.95492 19.9368 3.85381C19.8949 3.7527 19.8334 3.66083 19.756 3.58346L17.6002 1.43096C17.1314 0.962795 16.496 0.699829 15.8335 0.699829C15.171 0.699829 14.5356 0.962795 14.0669 1.43096L11.911 3.58346C11.8336 3.66083 11.7722 3.7527 11.7302 3.85381C11.6883 3.95492 11.6667 4.0633 11.6667 4.17275C11.6666 4.28221 11.6882 4.3906 11.73 4.49174C11.7719 4.59288 11.8332 4.68479 11.9106 4.76222C11.988 4.83964 12.0798 4.90107 12.1809 4.94299C12.2821 4.98491 12.3904 5.00651 12.4999 5.00655C12.6093 5.00659 12.7177 4.98507 12.8189 4.94322C12.92 4.90137 13.0119 4.84 13.0894 4.76263L15.0002 2.8543V18.4426L13.0894 16.5343C13.0119 16.4569 12.92 16.3956 12.8189 16.3537C12.7177 16.3119 12.6093 16.2903 12.4999 16.2904C12.3904 16.2904 12.2821 16.312 12.1809 16.3539C12.0798 16.3959 11.988 16.4573 11.9106 16.5347C11.8332 16.6121 11.7719 16.7041 11.73 16.8052C11.6882 16.9063 11.6666 17.0147 11.6667 17.1242C11.6667 17.2336 11.6883 17.342 11.7302 17.4431C11.7722 17.5442 11.8336 17.6361 11.911 17.7135L14.0669 19.866C14.5356 20.3341 15.171 20.5971 15.8335 20.5971C16.496 20.5971 17.1314 20.3341 17.6002 19.866L19.756 17.7135C19.8334 17.6361 19.8949 17.5442 19.9368 17.4431C19.9787 17.342 20.0003 17.2336 20.0003 17.1242C20.0004 17.0147 19.9789 16.9063 19.937 16.8052C19.8952 16.7041 19.8338 16.6121 19.7564 16.5347C19.6791 16.4573 19.5872 16.3959 19.4861 16.3539C19.385 16.312 19.2766 16.2904 19.1671 16.2904C19.0577 16.2903 18.9493 16.3119 18.8481 16.3537C18.747 16.3956 18.6551 16.4569 18.5777 16.5343Z" fill="#0A0A0A"/>
</g>
<defs>
<clipPath id="clip0_330_14264">
<rect width="20" height="20" fill="white" transform="translate(0 0.660156)"/>
</clipPath>
</defs>
</svg>
