<svg width="18" height="19" viewBox="0 0 18 19" fill="none" xmlns="http://www.w3.org/2000/svg">
<g clip-path="url(#clip0_530_18776)">
<path d="M16.9155 1.35243C16.5769 1.07004 16.18 0.86621 15.7532 0.75559C15.3264 0.644971 14.8804 0.630315 14.4473 0.712678L7.55925 2.00418C6.69955 2.16529 5.92321 2.62185 5.36456 3.29487C4.8059 3.96788 4.50008 4.81501 4.5 5.68968V13.0772C4.04599 12.8072 3.52819 12.6633 3 12.6602C2.40666 12.6602 1.82664 12.8361 1.33329 13.1658C0.839943 13.4954 0.455426 13.9639 0.228363 14.5121C0.00129984 15.0603 -0.0581102 15.6635 0.0576455 16.2454C0.173401 16.8274 0.459124 17.3619 0.878681 17.7815C1.29824 18.2011 1.83279 18.4868 2.41473 18.6025C2.99667 18.7183 3.59987 18.6589 4.14805 18.4318C4.69623 18.2048 5.16477 17.8202 5.49441 17.3269C5.82406 16.8335 6 16.2535 6 15.6602V8.81718C5.99998 8.46722 6.12232 8.12826 6.34584 7.85899C6.56937 7.58971 6.88002 7.40707 7.224 7.34268L15.6113 5.76768C15.7201 5.74719 15.832 5.75105 15.9392 5.77897C16.0463 5.80689 16.1459 5.85818 16.2309 5.92916C16.3158 6.00014 16.384 6.08905 16.4306 6.1895C16.4771 6.28996 16.5008 6.39947 16.5 6.51018V10.8302C16.0463 10.5592 15.5285 10.4142 15 10.4102C14.4067 10.4102 13.8266 10.5861 13.3333 10.9158C12.8399 11.2454 12.4554 11.7139 12.2284 12.2621C12.0013 12.8103 11.9419 13.4135 12.0576 13.9954C12.1734 14.5774 12.4591 15.1119 12.8787 15.5315C13.2982 15.9511 13.8328 16.2368 14.4147 16.3525C14.9967 16.4683 15.5999 16.4089 16.1481 16.1818C16.6962 15.9548 17.1648 15.5702 17.4944 15.0769C17.8241 14.5835 18 14.0035 18 13.4102V3.66018C18.0005 3.21936 17.9036 2.78387 17.7161 2.38491C17.5286 1.98595 17.2552 1.63337 16.9155 1.35243V1.35243ZM3 17.1602C2.70333 17.1602 2.41332 17.0722 2.16665 16.9074C1.91997 16.7426 1.72771 16.5083 1.61418 16.2342C1.50065 15.9601 1.47095 15.6585 1.52882 15.3675C1.5867 15.0766 1.72956 14.8093 1.93934 14.5995C2.14912 14.3897 2.41639 14.2469 2.70737 14.189C2.99834 14.1311 3.29994 14.1608 3.57403 14.2744C3.84812 14.3879 4.08238 14.5801 4.24721 14.8268C4.41203 15.0735 4.5 15.3635 4.5 15.6602C4.5 16.058 4.34197 16.4395 4.06066 16.7208C3.77936 17.0021 3.39783 17.1602 3 17.1602ZM15.3353 4.29618L6.94725 5.86818C6.61375 5.93173 6.29345 6.05143 6 6.22218V5.68968C5.99993 5.16484 6.18333 4.65649 6.51848 4.2526C6.85362 3.8487 7.31941 3.57467 7.83525 3.47793L14.724 2.18643C14.9406 2.14589 15.1634 2.15355 15.3766 2.20887C15.5899 2.26419 15.7883 2.3658 15.9579 2.50649C16.1274 2.64718 16.2639 2.82349 16.3576 3.02288C16.4513 3.22228 16.4999 3.43986 16.5 3.66018V4.39818C16.1279 4.26053 15.7256 4.22531 15.3353 4.29618V4.29618ZM15 14.9102C14.7033 14.9102 14.4133 14.8222 14.1666 14.6574C13.92 14.4926 13.7277 14.2583 13.6142 13.9842C13.5007 13.7101 13.4709 13.4085 13.5288 13.1175C13.5867 12.8266 13.7296 12.5593 13.9393 12.3495C14.1491 12.1397 14.4164 11.9969 14.7074 11.939C14.9983 11.8811 15.2999 11.9108 15.574 12.0244C15.8481 12.1379 16.0824 12.3301 16.2472 12.5768C16.412 12.8235 16.5 13.1135 16.5 13.4102C16.5 13.808 16.342 14.1895 16.0607 14.4708C15.7794 14.7521 15.3978 14.9102 15 14.9102Z" fill="currentColor"/>
</g>
<defs>
<clipPath id="clip0_530_18776">
<rect width="18" height="18" fill="white" transform="translate(0 0.660156)"/>
</clipPath>
</defs>
</svg>
