<svg width="14" height="19" viewBox="0 0 14 19" fill="none" xmlns="http://www.w3.org/2000/svg">
<path d="M6.74987 9.65991C7.63987 9.65991 8.50987 9.39599 9.24987 8.90154C9.98987 8.40709 10.5666 7.7043 10.9072 6.88206C11.2478 6.05982 11.3369 5.15504 11.1633 4.28215C10.9897 3.40926 10.5611 2.60746 9.93177 1.97814C9.30245 1.34882 8.50065 0.920251 7.62776 0.746622C6.75487 0.572993 5.85009 0.662106 5.02785 1.00269C4.2056 1.34328 3.50282 1.92004 3.00837 2.66004C2.51391 3.40004 2.25 4.27004 2.25 5.16003C2.25119 6.35311 2.72567 7.49698 3.5693 8.34061C4.41293 9.18424 5.5568 9.65872 6.74987 9.65991ZM6.74987 2.16012C7.3432 2.16012 7.9232 2.33606 8.41654 2.66569C8.90987 2.99533 9.29438 3.46385 9.52144 4.01201C9.74849 4.56018 9.8079 5.16336 9.69215 5.74529C9.5764 6.32721 9.29068 6.86175 8.87114 7.28129C8.45159 7.70084 7.91706 7.98655 7.33513 8.10231C6.7532 8.21806 6.15002 8.15865 5.60186 7.93159C5.05369 7.70454 4.58517 7.32003 4.25554 6.8267C3.9259 6.33336 3.74996 5.75336 3.74996 5.16003C3.74996 4.36441 4.06602 3.60136 4.62861 3.03877C5.19121 2.47618 5.95425 2.16012 6.74987 2.16012V2.16012Z" fill="black"/>
<path d="M6.74981 11.1602C4.96026 11.1621 3.24457 11.8739 1.97917 13.1393C0.713761 14.4047 0.00198508 16.1204 0 17.91C0 18.1089 0.0790154 18.2996 0.219664 18.4403C0.360312 18.5809 0.551072 18.6599 0.749979 18.6599C0.948886 18.6599 1.13965 18.5809 1.28029 18.4403C1.42094 18.2996 1.49996 18.1089 1.49996 17.91C1.49996 16.5176 2.05307 15.1823 3.0376 14.1978C4.02214 13.2132 5.35746 12.6601 6.74981 12.6601C8.14216 12.6601 9.47748 13.2132 10.462 14.1978C11.4466 15.1823 11.9997 16.5176 11.9997 17.91C11.9997 18.1089 12.0787 18.2996 12.2193 18.4403C12.36 18.5809 12.5507 18.6599 12.7496 18.6599C12.9486 18.6599 13.1393 18.5809 13.28 18.4403C13.4206 18.2996 13.4996 18.1089 13.4996 17.91C13.4976 16.1204 12.7859 14.4047 11.5205 13.1393C10.2551 11.8739 8.53936 11.1621 6.74981 11.1602V11.1602Z" fill="black"/>
</svg>
